<?xml version="1.0" encoding="UTF-8" standalone="no"?>
<!-- Created with Inkscape (http://www.inkscape.org/) -->

<svg
   xmlns:dc="http://purl.org/dc/elements/1.1/"
   xmlns:cc="http://creativecommons.org/ns#"
   xmlns:rdf="http://www.w3.org/1999/02/22-rdf-syntax-ns#"
   xmlns:svg="http://www.w3.org/2000/svg"
   xmlns="http://www.w3.org/2000/svg"
   xmlns:xlink="http://www.w3.org/1999/xlink"
   xmlns:sodipodi="http://sodipodi.sourceforge.net/DTD/sodipodi-0.dtd"
   xmlns:inkscape="http://www.inkscape.org/namespaces/inkscape"
   width="120"
   height="62.637325"
   id="svg2"
   version="1.1"
   inkscape:version="0.48.0 r9654"
   sodipodi:docname="XOR_gate.svg">
  <defs
     id="defs4"><linearGradient
   gradientUnits="userSpaceOnUse"
   xlink:href="#SVGID_1_"
   id="linearGradient3125"
   y2="204.04417"
   x2="252.20032"
   y1="-22.383852"
   x1="150.95201" />

	
<linearGradient
   gradientUnits="userSpaceOnUse"
   id="SVGID_1_"
   y2="150.3159"
   x2="200.5"
   y1="13.8989"
   x1="200.5">
		<stop
   offset="0.1374"
   style="stop-color:#ffffff;stop-opacity:1"
   id="stop3099" />

		<stop
   offset="1"
   style="stop-color:#ff9e10;stop-opacity:1"
   id="stop3101" />

	</linearGradient>

	
	</defs>
  <sodipodi:namedview
     id="base"
     pagecolor="#ffffff"
     bordercolor="#666666"
     borderopacity="1.0"
     inkscape:pageopacity="0.0"
     inkscape:pageshadow="2"
     inkscape:zoom="3.959798"
     inkscape:cx="63.276002"
     inkscape:cy="30.858562"
     inkscape:document-units="px"
     inkscape:current-layer="g3126"
     showgrid="false"
     inkscape:window-width="1024"
     inkscape:window-height="712"
     inkscape:window-x="-4"
     inkscape:window-y="-4"
     inkscape:window-maximized="1"
     fit-margin-top="0"
     fit-margin-left="0"
     fit-margin-right="0"
     fit-margin-bottom="0" />
  <metadata
     id="metadata7">
    <rdf:RDF>
      <cc:Work
         rdf:about="">
        <dc:format>image/svg+xml</dc:format>
        <dc:type
           rdf:resource="http://purl.org/dc/dcmitype/StillImage" />
        <dc:title></dc:title>
      </cc:Work>
    </rdf:RDF>
  </metadata>
  <g
     inkscape:label="Layer 1"
     inkscape:groupmode="layer"
     id="layer1"
     transform="translate(-508.57143,-343.90067)">
    <g
       id="g3126"
       transform="matrix(0.24477307,0,0,0.24477307,509.32904,343.90051)">
      <g
         id="g3088">
		<path
   style="fill:#ff9e10"
   id="path3090"
   d="M 348.5,126.267 C 256.5,276.267 46.5,246.6 46.5,246.6 178.167,114.933 47.167,9.934 47.167,9.934 c 0,0 212.333,-32.667 301.333,116.333"
   inkscape:connector-curvature="0" />

		<g
   id="g3092">
			<path
   style="fill:none"
   id="path3094"
   d="M 348.5,126.267 C 256.5,276.267 46.5,246.6 46.5,246.6 178.167,114.933 47.167,9.934 47.167,9.934 c 0,0 212.333,-32.667 301.333,116.333"
   inkscape:connector-curvature="0" />

			<path
   id="path3096"
   d="m 342.888,122.987 c -21.697,35.15 -52.396,63.058 -88.73,82.52 -31.545,16.896 -66.463,26.91 -101.714,32.368 -24.517,3.796 -49.476,5.103 -74.266,4.456 -7.682,-0.2 -15.361,-0.617 -23.017,-1.297 -2.112,-0.188 -4.222,-0.399 -6.328,-0.643 -1.194,-0.138 -3.507,-0.467 -0.605,-0.059 0.956,3.621 1.912,7.242 2.868,10.864 C 85.32,216.752 112.902,172.73 111.636,122.618 110.816,90.136 97.485,59.084 77.983,33.49 70.281,23.383 61.717,13.337 51.763,5.337 c -0.956,3.621 -1.912,7.243 -2.868,10.864 2.512,-0.385 -1.297,0.154 1.003,-0.14 2.466,-0.314 4.938,-0.581 7.411,-0.825 8.892,-0.876 17.819,-1.386 26.75,-1.653 28.634,-0.855 57.429,1.013 85.627,6.109 32.594,5.891 64.479,16.242 93.392,32.542 32.842,18.515 60.372,44.987 79.81,77.312 4.313,7.174 15.557,0.643 11.225,-6.561 C 332.904,87.713 302.636,59.198 266.652,39.341 234.997,21.876 199.81,11.297 164.214,5.642 125.474,-0.513 84.386,-2.3 45.438,3.666 c -4.635,0.71 -6.485,7.957 -2.868,10.864 12.511,10.055 22.994,22.962 31.643,35.994 18.467,27.829 28.313,61.188 23.051,94.594 -5.96,37.834 -28.917,70.272 -55.36,96.886 -3.104,3.125 -2.168,10.156 2.868,10.864 40.747,5.729 83.679,2.87 123.929,-4.642 34.599,-6.457 68.466,-17.944 99.095,-35.406 35.256,-20.1 65.001,-48.739 86.316,-83.272 4.417,-7.155 -6.832,-13.679 -11.224,-6.561 l 0,0 z"
   inkscape:connector-curvature="0" />

		</g>

	</g>
      <path
         style="fill:url(#linearGradient3125);fill-opacity:1"
         id="path3103"
         d="m 59.159122,13.910789 c 0,0 51.762278,45.98934 51.762278,112.246541 0,0 40.13332,-39.853642 94.24563,0 0,0 61.68048,54.35675 135.75341,0 0,0 -63.48214,-131.0884172 -281.761318,-112.246541 z"
         inkscape:connector-curvature="0" />
      <g
         id="Layer_3">
	<line
   style="fill:none;stroke:#000000;stroke-width:10"
   id="line3106"
   y2="170.10001"
   x2="101.15"
   y1="170.10001"
   x1="0" />

	<line
   style="fill:none;stroke:#000000;stroke-width:10"
   id="line3108"
   y2="84.766998"
   x2="100.817"
   y1="84.766998"
   x1="0" />

	<line
   style="fill:none;stroke:#000000;stroke-width:9.86422348"
   id="line3110"
   y2="126.46572"
   x2="401.34296"
   y1="126.46572"
   x1="346.50836" />

</g>
    </g>
    <path
       style="fill:none;stroke:#000000;stroke-width:2.65633821;stroke-linecap:round;stroke-linejoin:round;stroke-miterlimit:4;stroke-opacity:1;stroke-dasharray:none"
       d="m 510.84245,347.36036 c 0,0 12.93023,5.84108 11.60579,29.67325 -1.32445,23.83216 -11.20559,26.54975 -11.20559,26.54975"
       id="path3138"
       inkscape:connector-curvature="0"
       sodipodi:nodetypes="czc" />
  </g>
</svg>
